<svg xmlns="http://www.w3.org/2000/svg" aria-hidden="true" style="position:absolute;width:0;height:0;overflow:hidden">
  <defs>
  <!-- header -->
    <symbol id="icon-header-logo" viewBox="0 0 32 32">
      <path d="M22.785 8.573c0-3.49-2.856-6.346-6.346-6.346s-6.346 2.856-6.346 6.346 2.856 6.346 6.346 6.346 6.346-2.856 6.346-6.346zm-11.228 0 3.051-1.782c.488-.293 1.098.073 1.098.635v1.147c0 .415.317.732.732.732h4.808a4.865 4.865 0 0 1-4.808 4.149 4.895 4.895 0 0 1-4.881-4.881zM28.789 21.436c-.195-.342-.659-.464-1.001-.269s-.464.659-.268 1.001l2.636 4.54c.122.195.195.415.195.659 0 .683-.537 1.22-1.22 1.22h-3.588l.781-9.348c.049-.61-.146-1.22-.561-1.66s-1.025-.708-1.635-.708H8.556c-.61 0-1.22.268-1.635.732s-.61 1.074-.561 1.709l.976 9.299H3.748c-.683 0-1.22-.537-1.22-1.22 0-.22.073-.439.171-.635.024-.024 2.66-4.564 2.66-4.564.195-.342.073-.805-.268-1.001s-.805-.073-1.001.269l-2.587 4.442a2.638 2.638 0 0 0-.439 1.464 2.677 2.677 0 0 0 2.685 2.685h25.384a2.677 2.677 0 0 0 2.685-2.685c0-.513-.146-1.025-.439-1.464l-2.588-4.467zm-12.594 3.247c-.806 0-1.465-.659-1.465-1.465s.659-1.464 1.465-1.464c.805 0 1.464.659 1.464 1.464s-.659 1.465-1.464 1.465z"/>
    </symbol>

  <!-- hero -->
    <symbol id="icon-hero-arrow-1" viewBox="0 0 47 32">
      <path d="M0 16.41h41.201l-15.592 11.328 1.705 2.23 19.636-15.035-19.636-14.939-1.705 2.134 15.592 11.328h-41.201v2.954z"></path>
    </symbol>
    <symbol id="icon-hero-arrow-2" viewBox="0 0 47 32">
      <path d="M0 16.41h41.201l-15.592 11.328 1.705 2.23 19.636-15.035-19.636-14.939-1.705 2.134 15.592 11.328h-41.201v2.954z"></path>
    </symbol>

    <symbol id="icon-hero-1" viewBox="0 0 32 32">
      <path d="M24.308 13.161a10.157 10.157 0 0 0-2.41-2.41.51.51 0 0 0-.514-.046l-1.66.785a8.748 8.748 0 0 0-1.007-.417l-.618-1.862a.51.51 0 0 0-.484-.349h-3.232a.51.51 0 0 0-.484.349l-.625 1.884-.978.405-1.682-.795a.511.511 0 0 0-.512.045 10.17 10.17 0 0 0-2.41 2.409.51.51 0 0 0-.046.514l.796 1.682-.405.978-1.884.625a.51.51 0 0 0-.35.484v3.232c0 .22.141.415.35.484l1.884.625.405.978-.796 1.682a.511.511 0 0 0 .045.513 10.157 10.157 0 0 0 2.41 2.41.508.508 0 0 0 .522.041l1.524-.754-.452-.914-1.246.617a9.127 9.127 0 0 1-1.751-1.75l.763-1.612a.512.512 0 0 0 .01-.413l-.581-1.402a.511.511 0 0 0-.311-.289l-1.756-.582v-2.496l1.756-.582a.511.511 0 0 0 .311-.289l.581-1.402a.512.512 0 0 0-.01-.413l-.762-1.611a9.15 9.15 0 0 1 1.755-1.756l1.612.762c.13.062.28.066.413.01l1.402-.581a.515.515 0 0 0 .289-.31l.582-1.756h2.496l.582 1.756a.51.51 0 0 0 .332.326c.454.141.895.324 1.316.546a.51.51 0 0 0 .457.01l1.611-.762a9.145 9.145 0 0 1 1.756 1.754l-.763 1.612a.505.505 0 0 0 .011.456c.221.421.404.861.545 1.316a.51.51 0 0 0 .326.332l1.756.583v2.496l-1.756.582a.51.51 0 0 0-.326.332 7.831 7.831 0 0 1-.545 1.316.512.512 0 0 0-.011.456l.762 1.611a9.156 9.156 0 0 1-1.749 1.752l-1.247-.617-.452.914 1.524.754a.509.509 0 0 0 .52-.04 10.17 10.17 0 0 0 2.41-2.409.513.513 0 0 0 .046-.514l-.785-1.66c.16-.327.299-.663.417-1.007l1.861-.618a.51.51 0 0 0 .35-.484v-3.232a.51.51 0 0 0-.35-.484l-1.861-.617a8.675 8.675 0 0 0-.417-1.007l.785-1.66a.513.513 0 0 0-.045-.513z"/>
      <path d="M13.451 29.255v1.529a.51.51 0 0 0 .509.509h4.078a.506.506 0 0 0 .51-.509v-1.529a.51.51 0 0 0 .509-.51v-.762a8.94 8.94 0 0 1 1.866-5.298 6.053 6.053 0 0 0 1.193-3.626 6.12 6.12 0 0 0-8.115-5.789 6.12 6.12 0 0 0-2.814 9.563 8.714 8.714 0 0 1 1.753 5.389v.523a.51.51 0 0 0 .509.509zm4.078 1.019H14.47v-1.02h3.059v1.02zm-5.539-8.072a5.078 5.078 0 0 1-1.025-3.958 5.14 5.14 0 0 1 4.446-4.251 5.1 5.1 0 0 1 5.638 4.355 5.092 5.092 0 0 1-.944 3.729 9.953 9.953 0 0 0-2.066 5.904v.253H16.51v-4.13a2.55 2.55 0 0 0 1.608-3.917 2.547 2.547 0 0 0-4.234 0 2.548 2.548 0 0 0 1.607 3.917v4.13h-1.529v-.014a9.744 9.744 0 0 0-1.971-6.02zm4.01.935a1.53 1.53 0 1 1 0-3.06 1.53 1.53 0 0 1 0 3.06zM11.922 2.262v2.496a1.556 1.556 0 0 0 1.555 1.555h1.23l.868 1.302a.51.51 0 0 0 .848 0l.868-1.302h1.23a1.56 1.56 0 0 0 1.556-1.555V2.262A1.556 1.556 0 0 0 18.521.707h-5.045a1.556 1.556 0 0 0-1.555 1.555zm1.019 0c0-.296.24-.536.536-.536h5.045c.296 0 .536.24.536.536v2.496c0 .296-.24.536-.536.536h-1.503a.51.51 0 0 0-.424.227L16 6.414l-.595-.893a.51.51 0 0 0-.424-.227h-1.503a.536.536 0 0 1-.536-.536V2.262zM26.706.706a4.59 4.59 0 0 0-3.244 7.832 4.584 4.584 0 0 0 6.488 0 4.584 4.584 0 0 0-.001-6.487A4.591 4.591 0 0 0 26.706.706zm0 8.157a3.567 3.567 0 1 1 0-7.134 3.567 3.567 0 0 1 0 7.134zM5.294 9.882A4.59 4.59 0 0 0 8.538 2.05a4.584 4.584 0 0 0-6.488 0 4.584 4.584 0 0 0 .001 6.487 4.591 4.591 0 0 0 3.243 1.345zm0-8.156a3.567 3.567 0 1 1 0 7.134 3.567 3.567 0 0 1 0-7.134z"/>
      <path d="M26.706 4.784a.51.51 0 1 1 0-1.02h1.02v-1.02h-1.02a1.527 1.527 0 1 0 0 3.059.51.51 0 1 1 0 1.02h-1.02v1.02h1.02a1.527 1.527 0 1 0 0-3.059zM13.961 2.745H16v1.02h-2.039v-1.02zM17.02 2.745h1.02v1.02h-1.02v-1.02zM3.255 5.294h1.02v1.529h-1.02V5.294zM4.784 4.275h1.02v2.549h-1.02V4.275zM6.314 3.255h1.02v3.569h-1.02V3.255zM29.255 10.392h1.02v1.02h-1.02v-1.02zM29.255 12.431h1.02v1.02h-1.02v-1.02zM29.255 14.471h1.02v1.02h-1.02v-1.02zM29.255 16.51h1.02v1.02h-1.02v-1.02zM29.255 18.549h1.02v1.02h-1.02v-1.02zM27.216 18.549h1.02v1.02h-1.02v-1.02zM1.726 10.392h1.02v1.02h-1.02v-1.02zM1.726 12.431h1.02v1.02h-1.02v-1.02zM1.726 14.471h1.02v1.02h-1.02v-1.02zM1.726 16.51h1.02v1.02h-1.02v-1.02zM1.726 18.549h1.02v1.02h-1.02v-1.02zM3.765 18.549h1.02v1.02h-1.02v-1.02zM15.49 21.098h1.02v1.02h-1.02v-1.02z"/>
    </symbol>
    <symbol id="icon-hero-2" viewBox="0 0 32 32">
      <path d="m26.331 11.115.279.153.153.279a.817.817 0 0 0 1.432 0l.153-.279.279-.153a.817.817 0 0 0 0-1.432l-.279-.153-.153-.279a.817.817 0 0 0-1.432 0l-.153.279-.279.155a.817.817 0 0 0 0 1.432v-.002zm.35-.79.444-.243a.092.092 0 0 0 .034-.034l.243-.445c.015-.028.044-.045.076-.044s.06.017.075.044l.243.445c.008.014.02.026.034.034l.445.243c.028.015.045.044.045.075s-.017.061-.045.076l-.445.243a.092.092 0 0 0-.034.034l-.243.444c-.015.028-.044.045-.075.045s-.061-.017-.076-.045l-.243-.444a.086.086 0 0 0-.034-.034l-.444-.243c-.028-.015-.046-.044-.046-.076s.018-.061.046-.076v.001zM3.341 19.023l.491.269.269.491a.856.856 0 0 0 1.499 0l.268-.491.491-.269a.852.852 0 0 0 0-1.499l-.491-.268-.269-.492a.854.854 0 0 0-1.499 0l-.269.492-.49.271a.854.854 0 0 0 0 1.499v-.003zm.35-.86.646-.353a.133.133 0 0 0 .05-.05l.354-.646a.125.125 0 0 1 .22 0l.354.646a.133.133 0 0 0 .05.05l.646.353a.124.124 0 0 1 0 .22l-.646.354a.127.127 0 0 0-.05.05l-.354.646a.125.125 0 0 1-.22 0l-.354-.646a.127.127 0 0 0-.05-.05l-.646-.354a.124.124 0 0 1 0-.22zM14.888 17.913c.205-.088.295-.116.419-.061a.974.974 0 0 0 .808 0c.125-.056.214-.028.42.061.151.076.317.12.486.129.069 0 .137-.01.203-.029a.365.365 0 0 0-.202-.701.797.797 0 0 1-.201-.069c-.23-.099-.578-.248-1.007-.055a.244.244 0 0 1-.208 0c-.425-.193-.777-.044-1.006.055a.88.88 0 0 1-.2.07.366.366 0 0 0-.436.529.367.367 0 0 0 .233.17c.273.08.504-.019.69-.099zM16.194 18.462h-.968a.365.365 0 0 0 0 .73h.967a.365.365 0 0 0 0-.73h.001z"/>
      <path d="m23.005 23.498-.087-.035a14.794 14.794 0 0 0-.122-1.168.932.932 0 0 0-.504-.698l-1.353-.682a.921.921 0 0 0-.834 0 .906.906 0 0 0-.494.653c-.015.08-.033.164-.053.251a3.22 3.22 0 0 1-.243-.327c-.278-.425-.429-.927-.51-1.325a19.676 19.676 0 0 0 1.74-1.701c.506-.551.879-1.215 1.158-1.936 2.689-.648 2.829-3.375 2.917-5.066a2.315 2.315 0 0 0-1.155-2.122c-.102-1.038-.406-2.244-.886-3.166a.535.535 0 0 0 .343-.282.523.523 0 0 0-.026-.511c-.761-1.226-2.166-2.279-3.813-2.881a.533.533 0 0 0-.34-.725 10.933 10.933 0 0 0-1.142-.281.618.618 0 0 0-.122-.365.95.95 0 0 0-.65-.357 9.167 9.167 0 0 0-2.233 0 .954.954 0 0 0-.651.357.61.61 0 0 0-.112.471c-1.416.414-2.424 1.247-2.917 2.191a.069.069 0 0 1-.039.036 4.841 4.841 0 0 0-2.9 2.454.512.512 0 0 0 .539.731 12.17 12.17 0 0 0-.522 2.301 2.316 2.316 0 0 0-1.189 2.142c.087 1.692.227 4.421 2.921 5.067.279.719.652 1.384 1.158 1.935a19.355 19.355 0 0 0 1.736 1.701c-.105.516-.283.981-.511 1.329a3.677 3.677 0 0 1-.243.326 4.059 4.059 0 0 1-.053-.251.905.905 0 0 0-.493-.653.924.924 0 0 0-.835 0l-1.356.684a.929.929 0 0 0-.503.695c-.055.383-.095.775-.122 1.168l-.086.035c-2.587 1.088-4.649 3.499-5.804 6.791a.609.609 0 0 0 .571.806h25.051a.606.606 0 0 0 .57-.807c-1.155-3.292-3.217-5.703-5.803-6.788zM18.123 2.712a.453.453 0 0 0 .312.34c1.542.476 2.885 1.376 3.659 2.441a.474.474 0 0 0-.331.718c.464.745.79 1.855.931 2.846a20.239 20.239 0 0 0-1.116-.159c-.259-.795-.732-1.541-1.421-2.23a.365.365 0 0 0-.623.257c0 .17-.02.339-.061.504a11.34 11.34 0 0 0-1.337-1.078c-.102-.661-.227-1.215-.339-1.718-.201-.896-.356-1.59-.291-2.416.22.044.446.096.679.159a.45.45 0 0 0-.063.335zm.215 5.924a18.99 18.99 0 0 0-.078-1.293c.384.302.745.631 1.083.983.077.08.186.12.296.111s.21-.069.271-.162c.101-.163.179-.339.232-.524.253.324.462.68.622 1.058a54.602 54.602 0 0 0-2.426-.174zm-3.651-7.14a8.394 8.394 0 0 1 2.053 0 .331.331 0 0 1 .122.04c-.229 1.235-.029 2.127.224 3.256.212.948.47 2.101.521 3.809-.741-.029-1.402-.043-1.896-.043s-1.155.013-1.892.043c.051-1.708.309-2.861.521-3.809.252-1.127.453-2.022.224-3.256a.336.336 0 0 1 .123-.04zm-1.598 7.139c-.79.04-1.633.098-2.437.176a3.97 3.97 0 0 1 .591-1.099c.262-.332.698-.743 1.291-.806a.365.365 0 0 0 .264-.161c.14-.213.315-.4.518-.554a17.897 17.897 0 0 0-.228 2.445zm-2.002-4.109a.792.792 0 0 0 .474-.395c.313-.597 1.086-1.382 2.366-1.798.043.777-.107 1.448-.298 2.301-.045.199-.091.407-.138.627a2.788 2.788 0 0 0-1.205.944c-.604.113-1.16.475-1.617 1.056a4.878 4.878 0 0 0-.815 1.636c-.385.046-.752.097-1.089.154.107-.681.317-1.55.608-2.253a.438.438 0 0 0-.066-.454.448.448 0 0 0-.436-.151 4.102 4.102 0 0 1 2.215-1.667zm-2.234 5.25c2.066-.354 5.304-.486 6.859-.486s4.791.132 6.858.486c.395.067.75.282.994.6a90.274 90.274 0 0 0-15.701-.004c.243-.316.597-.529.991-.596zm-1.32 1.645a1.633 1.633 0 0 1 .011-.288 89.645 89.645 0 0 1 16.333 0c.012.095.016.19.011.286-.117 2.277-.443 4.335-3.112 4.504a9.161 9.161 0 0 1-3.099-.327 7.178 7.178 0 0 0-3.932 0 9.161 9.161 0 0 1-3.099.327c-2.67-.167-2.996-2.225-3.113-4.502zm3.89 6.546a5.033 5.033 0 0 1-.851-1.316h.028a9.837 9.837 0 0 0 3.346-.353 6.443 6.443 0 0 1 3.532 0 9.894 9.894 0 0 0 3.346.354h.032c-.213.48-.5.925-.851 1.316-1.002 1.091-1.624 1.63-2.639 2.427a2.672 2.672 0 0 1-3.306 0c-1.014-.797-1.636-1.336-2.639-2.427h.001zm1.298 3.922a4.28 4.28 0 0 0 .526-1.211c.117.094.238.189.365.289a3.399 3.399 0 0 0 4.206 0c.126-.099.243-.194.361-.286.112.427.29.835.526 1.208.174.268.38.514.614.732a15.782 15.782 0 0 1-1.101 2.415c-1.674.975-3.329.972-5.012-.005a15.77 15.77 0 0 1-1.099-2.41c.234-.218.439-.464.613-.732h.001zm-.282 8.475H3.361c1.06-2.912 2.865-5.06 5.111-6.093-.017.787.033 1.575.148 2.354.163 1.05.529 2.33 1.343 2.468a.78.78 0 0 0 .128.01c.542 0 1.48-.481 2.936-1.347-.13.562-.535 2.378-.589 2.608h.002zm-1.154-2.455c-.935.486-1.175.47-1.198.466-.188-.032-.541-.554-.744-1.861-.19-1.221-.187-2.759.008-4.115a.2.2 0 0 1 .11-.148l1.355-.684a.201.201 0 0 1 .182 0c.053.025.09.074.1.131.275 1.499 1.323 3.6 2.171 4.817a.196.196 0 0 1 .037.122 2.55 2.55 0 0 0-.024.087.19.19 0 0 1-.071.075l-.172.103c-.49.293-1.16.697-1.754 1.006h.001zm1.901 2.455c.041-.182.634-2.829.786-3.403a.933.933 0 0 0-.064-.791 5.085 5.085 0 0 0 3.598.005.934.934 0 0 0-.056.786c.152.576.746 3.221.786 3.403l-5.051.001zm5.029-3.566a.2.2 0 0 1-.072-.075 2.105 2.105 0 0 0-.024-.088.206.206 0 0 1 .037-.122c.848-1.215 1.897-3.319 2.172-4.817a.18.18 0 0 1 .1-.131c.028-.014.059-.022.09-.021s.063.007.091.022l1.356.684a.202.202 0 0 1 .11.148c.194 1.356.197 2.894.007 4.115-.203 1.307-.556 1.829-.744 1.861-.024.004-.263.02-1.198-.466-.594-.309-1.265-.713-1.754-1.007l-.171-.103zm.77 3.566c-.052-.229-.459-2.045-.589-2.607 1.458.867 2.395 1.347 2.937 1.347a.768.768 0 0 0 .127-.01c.816-.138 1.181-1.42 1.342-2.468.116-.779.165-1.567.148-2.355 2.248 1.033 4.051 3.18 5.111 6.092l-9.076.001z"/>
    </symbol>
    
  <!-- categories -->
    <symbol id="icon-categories-1" viewBox="0 0 32 32">
      <path d="M.001 22.348a1.62 1.62 0 0 0 1.618 1.618h27.977a1.62 1.62 0 0 0 1.618-1.618v-1.449H.002v1.449zM29.595 2.526H1.618A1.62 1.62 0 0 0 0 4.143v15.865h31.212V4.143a1.62 1.62 0 0 0-1.618-1.617zM26.566 28.584h-6.197l-.872-3.728h-7.78l-.872 3.728H4.648a.445.445 0 1 0 0 .89h21.917a.445.445 0 0 0 .001-.89z"/>
    </symbol>
    <symbol id="icon-categories-2" viewBox="0 0 32 32">
      <path d="m26.593 10.029.748-1.208 1.208.748-.748 1.208-1.208-.748zM21.903 13.937l.748-1.208 1.208.748-.748 1.208-1.208-.748zM24.561 13.312l.748-1.208 1.208.748-.748 1.208-1.208-.748zM23.935 10.654l.748-1.208 1.208.748-.748 1.208-1.208-.748zM22.919 12.296l.748-1.208 1.208.748-.748 1.208-1.208-.748zM25.577 11.671l.748-1.208 1.208.748-.748 1.208-1.208-.748zM20.751 8.463l.036.243 1.074.664.748-1.208-1.208-.748-.649 1.049zM20.604 7.732l.363-.586-.646-.4c.11.322.204.651.284.986zM24.951 9.012l.748-1.208 1.208.748-.748 1.208-1.208-.748zM22.293 9.639l.748-1.208 1.208.748-.748 1.208-1.208-.748zM23.31 7.997l.748-1.208 1.208.748-.748 1.208-1.208-.748zM22.033 4.936l.217.134.185-.299c-.135.05-.269.104-.402.164zM23.545 14.954l.748-1.208 1.208.748-.748 1.208-1.208-.748zM21.202 14.103l-.856-.53a10.529 10.529 0 0 1-1.012 2.183c.178.163.368.312.569.446l1.299-2.099zM20.331 9.156a10.12 10.12 0 0 0-1.184-3.826l-.76 2.467 1.944 1.359zM21.668 6.981l.748-1.208 1.208.748-.748 1.208-1.208-.748zM25.066 16.495l-.148-.091-.127.204c.093-.035.184-.073.275-.112zM20.5 13.07l.97.601.747-1.21-1.208-.748-.308.498c-.055.289-.123.575-.201.859zM21.278 11.28l.748-1.208 1.208.748-.748 1.208-1.208-.748zM20.892 10.191c0 .182-.005.364-.014.545l-.006.079-.012.171.732-1.183-.736-.456c.022.279.036.559.036.844zM6.917 9.266l1.172 3.983h4.205l1.172-3.983-3.274-2.572-3.274 2.572zM20.33 11.23c.015-.147.025-.295.034-.444l.006-.076c.009-.172.013-.345.013-.519 0-.129-.005-.256-.01-.384l-2.329-1.631-4.08 1.201-1.197 4.077 2.139 2.852h3.434a10.134 10.134 0 0 0 1.99-5.061l.002-.014zM20.517 18.584l.087-.048a5.598 5.598 0 0 1-2.324-1.344 12.56 12.56 0 0 1-.366.4.249.249 0 0 1 .012.086 23.89 23.89 0 0 1-.252 2.617 30.19 30.19 0 0 1 2.842-1.711zM12.701.314a10.2 10.2 0 0 0-5.019 0l2.509 1.674 2.51-1.674zM7.618 13.453 6.419 9.376 2.338 8.179.009 9.81a10.14 10.14 0 0 0 2.034 6.497h3.434l2.14-2.854zM1.236 5.33A10.12 10.12 0 0 0 .052 9.156l1.943-1.359-.759-2.467zM2.457 16.816A10.243 10.243 0 0 0 6.2 19.568l-.786-2.752H2.457zM10.447 6.246l3.366 2.646 4.074-1.197.909-2.955A10.235 10.235 0 0 0 13.341.501L10.447 2.43v3.816zM20.249 6.103l.986.61.747-1.209-.48-.297a7.287 7.287 0 0 0-1.254.897zM6.57 8.892l3.366-2.646V2.429L7.042.5a10.23 10.23 0 0 0-5.455 4.239l.909 2.953 4.074 1.2z"/>
      <path d="m27.755 4.031-.046-.021a.229.229 0 0 1-.027-.014c-2.383-1.434-5.596-.953-8.038 1.183.095.177.184.358.268.542 2.221-1.966 5.138-2.404 7.359-1.068 2.868 1.775 3.52 5.931 1.457 9.265-1.419 2.293-3.794 3.607-6.076 3.608a5.486 5.486 0 0 1-2.803-.75c-.01-.005-.02-.009-.029-.015l-.027-.018-.038-.023a5.24 5.24 0 0 1-.697-.532c-.142.209-.293.412-.45.611a5.228 5.228 0 0 0 2.734 1.392.254.254 0 0 1 .076.472l-.651.365c-1.365.762-3.064 1.709-3.396 2.234l-.004.007a.255.255 0 1 1-.433-.27l.004-.006c.27-.436.39-1.896.453-2.886-.296.269-.606.521-.929.755a8.7 8.7 0 0 1-1.07 3.911l1.055.653c1.447-2.164 3.605-3.108 5.885-4.108s4.645-2.033 6.395-4.406c.023-.031.394-.564.476-.698 2.291-3.697 1.639-8.261-1.447-10.184zM12.357 13.758H8.026l-2.14 2.854.91 3.185a10.122 10.122 0 0 0 3.914.573c.025 0 .051-.004.076-.006.149-.008.297-.019.444-.034.005 0 .009 0 .014-.002a10.103 10.103 0 0 0 2.342-.53l.91-3.187-2.14-2.854zM16.376 24.016l-1.479-.913a.239.239 0 0 1-.082-.088l-.031-.019-4.021 6.497 1.756 1.086 4.022-6.497-.051-.032a.245.245 0 0 1-.112-.035z"/>
      <path d="M17.927 16.816H14.97l-.786 2.752a10.232 10.232 0 0 0 3.743-2.752zM29.394 9.172l-.144.231.166.102a7.25 7.25 0 0 0-.022-.333zM29.02 12.13l-1.052-.652-.748 1.208 1.204.745c.239-.415.439-.85.596-1.302zM28.154 13.864l-1.204-.745-.747 1.208 1.049.649a7.48 7.48 0 0 0 .902-1.113zM24.048 16.842l.438-.707-1.208-.748-1.001 1.617a5.679 5.679 0 0 0 1.771-.161zM23.173 4.549l-.489.79 1.208.748 1.033-1.67a5.526 5.526 0 0 0-1.753.132zM26.868 15.339l-.934-.578-.748 1.208.419.26c.452-.25.876-.549 1.263-.89zM29.415 10.104l-.432-.267-.748 1.208.938.581a7.197 7.197 0 0 0 .242-1.522zM27.27 5.266l-1.302 2.105 1.208.748 1.136-1.834a4.837 4.837 0 0 0-1.042-1.018zM22.844 15.119l-1.208-.748-1.296 2.094c.434.225.9.382 1.382.469l1.123-1.815zM24.326 6.355l1.208.748 1.303-2.105a4.831 4.831 0 0 0-1.363-.499l-1.148 1.856zM27.609 8.387l1.208.748.455-.735a5.605 5.605 0 0 0-.648-1.652l-1.015 1.64z"/>
    </symbol>
    <symbol id="icon-categories-3" viewBox="0 0 32 32">
      <path d="M32 25.481v1.185c-.003.942-.393 1.845-1.085 2.511s-1.629 1.042-2.608 1.044H3.692c-.978-.003-1.916-.378-2.608-1.044S.002 27.608-.001 26.666v-1.185c.001-.314.131-.615.362-.837s.543-.347.869-.348h11.077v2.37h7.385v-2.37h11.077c.326.001.639.126.869.348s.361.523.362.837zm-19.692-3.555H1.231V5.333c.003-.942.393-1.845 1.085-2.511S3.945 1.78 4.924 1.778h22.154c.978.003 1.916.378 2.608 1.044s1.082 1.569 1.085 2.511v16.593H19.694c-.652.002-1.277.252-1.738.696s-.721 1.046-.723 1.674h-2.462c-.002-.628-.262-1.23-.723-1.674s-1.086-.694-1.738-.696zM6.154 7.704c.001.314.131.615.362.837s.543.347.869.348h17.231c.44 0 .846-.226 1.066-.593s.22-.819 0-1.185a1.24 1.24 0 0 0-1.066-.593H7.385c-.326.001-.639.126-.869.348s-.36.523-.362.837zm1.231 5.926h17.231c.44 0 .846-.226 1.066-.593s.22-.819 0-1.185a1.24 1.24 0 0 0-1.066-.593H7.385c-.44 0-.846.226-1.066.593s-.22.819 0 1.185c.22.367.626.593 1.066.593z"/>
    </symbol>
    <symbol id="icon-categories-4" viewBox="0 0 32 32">
      <path d="M13.244 25.985H1.449a.309.309 0 0 1-.308-.308l.001-19.231H.001L0 27.054h13.01c.49 0 .957.234 1.25.625a.953.953 0 0 0 .759.379h.587a2.385 2.385 0 0 0-2.362-2.074z"/>
      <path d="m12.194 25.006-8.415-2.042a.306.306 0 0 1-.235-.298L3.545 5.12H1.758v1.027L1.757 25.37h11.471a7.643 7.643 0 0 0-1.034-.364z"/>
      <path d="M13.016 4.534C10.968 3.947 5.623 2.731 4.16 2.4l-.001 20.024 8.19 1.986c1.782.496 2.751 1.3 3.277 2.056l.001-19.145c-.031-1.493-1.617-2.503-2.61-2.788zM30.729 6.446l-.001 19.231c0 .17-.138.307-.308.307H18.625c-1.209 0-2.21.905-2.362 2.074h.587a.952.952 0 0 0 .758-.379 1.572 1.572 0 0 1 1.25-.625h13.011l.001-20.608h-1.142z"/>
      <path d="M18.636 25.37h11.476l.001-20.249h-1.787l-.001 17.546a.308.308 0 0 1-.235.298l-8.425 2.044a7.805 7.805 0 0 0-1.029.361z"/>
      <path d="m19.51 24.414 8.2-1.989.001-20.024c-1.464.331-6.809 1.547-8.856 2.134-.992.285-2.579 1.295-2.61 2.794l-.001 19.136c.524-.755 1.491-1.558 3.267-2.052h-.001z"/>
    </symbol>
    <symbol id="icon-categories-5" viewBox="0 0 32 32">
      <path d="M24.139 3.567c-.815 0-1.581.317-2.158.893a3.053 3.053 0 0 0-.442 3.743l-6.709 6.833a.891.891 0 1 0 1.273 1.25l6.772-6.898a3.041 3.041 0 0 0 3.423-.616 3.054 3.054 0 0 0-.001-4.313 3.032 3.032 0 0 0-2.157-.892zm1.148 4.197c-.306.306-.714.475-1.148.475s-.841-.169-1.148-.475a1.626 1.626 0 0 1-.002-2.295c.307-.306.715-.475 1.149-.475s.842.169 1.148.474a1.627 1.627 0 0 1 0 2.297zm5.8-6.703-.022-.347A.712.712 0 0 0 30.4.048l-.346-.022a15.02 15.02 0 0 0-.938-.025c-2.56 0-8.965.452-13.144 4.632a25.59 25.59 0 0 0-1.457 1.582 4.394 4.394 0 0 0-1.909-.422c-1.233 0-2.396.457-3.192 1.254l-4.348 4.348c-.492.49-.343 1.083-.263 1.401.014.057.03.116.041.175A1.806 1.806 0 0 0 5.9 14.299l3.873 1.698-3.82 3.82a.71.71 0 0 0-.208.474c-.001.02-.004.166.026.399-1.585.403-3.781 1.575-4.119 4.082a.712.712 0 0 0 .999.746c.466-.208 1.154-.387 1.621-.367-.449.516-1.403 1.206-3.239 1.124a.713.713 0 0 0-.498 1.251c.071.062 1.342 1.142 3.026 1.241-.742.854-1.776 1.714-2.845 1.714a.713.713 0 0 0-.131 1.414c.054.01.583.105 1.376.105 1.261 0 3.188-.24 4.929-1.44 1.681-1.158 2.811-2.953 3.379-5.33.196.028.338.033.406.033l.045-.001a.714.714 0 0 0 .473-.208l3.886-3.887 1.801 4.107a1.799 1.799 0 0 0 1.664 1.092c.484 0 .939-.188 1.284-.531l4.394-4.394a4.117 4.117 0 0 0 .708-4.868 25.65 25.65 0 0 0 1.551-1.432c5.15-5.147 4.632-13.72 4.608-14.079zm-7.551 14.813c-.021.017-.038.037-.057.056-1.773 1.239-5.961 3.868-8.962 3.397-.74-.137-1.351-.44-1.82-.909-.461-.461-.761-1.059-.901-1.78-.004-.035-.007-.066-.013-.103-.556-3.75 3.772-9.302 4.123-9.745.343-.39.702-.775 1.076-1.149 3.802-3.804 9.753-4.215 12.134-4.215.231 0 .421.004.561.009.053 1.499.055 8.436-4.207 12.697a24.533 24.533 0 0 1-1.935 1.742h.001z"/>
    </symbol>
    
  <!-- cross-border -->
    <symbol id="icon-cross-border-1" viewBox="0 0 32 32">
      <path d="M26.439 23.338a12.99 12.99 0 0 0 2.448-7.638c.033-3.558-1.306-6.887-3.786-9.368-2.513-2.546-5.81-3.917-9.368-3.917-7.246 0-13.187 5.941-13.187 13.187s5.908 13.187 13.187 13.187c1.273 0 2.481-.163 3.623-.522l.065-.033-.261-1.305-.098.032c-1.11.327-2.252.522-3.395.522-6.528 0-11.849-5.321-11.849-11.849S9.139 3.785 15.667 3.785c6.528 0 11.849 5.32 11.849 11.849 0 2.513-.784 4.929-2.285 7.018v.065l1.143.653.065-.033z"/>
      <path d="M26.896 4.635C23.926 1.632 19.944 0 15.733 0c-1.469 0-2.872.196-4.21.587l-.065.033.229 1.208.098-.033a14.978 14.978 0 0 1 3.95-.555c7.997 0 14.525 6.495 14.525 14.525s-6.528 14.493-14.525 14.493C7.738 30.225 1.243 23.697 1.243 15.7c0-3.035.914-5.908 2.677-8.389l.065-.065-1.077-.62-.033.065C.982 9.335.002 12.468.002 15.732c0 8.65 7.05 15.7 15.7 15.7 8.682 0 15.766-7.05 15.766-15.7 0-4.178-1.599-8.128-4.57-11.098z"/>
      <path d="M13.187 11.131h-.489a3.942 3.942 0 0 0-3.95 3.95c0 2.154 1.926 3.591 1.991 3.656.098.065.163.163.163.229v2.611c0 .751.587 1.338 1.338 1.403.163.163.327.261.522.327h.326c.163-.065.327-.163.424-.261.751 0 1.338-.653 1.338-1.403v-2.611c0-.065.098-.163.229-.229.098-.065 1.991-1.502 1.991-3.656.097-2.252-1.731-4.015-3.885-4.015zm-1.763 6.626s-1.502-1.175-1.502-2.742 1.24-2.775 2.775-2.775h.49a2.752 2.752 0 0 1 2.775 2.775c0 1.502-1.338 2.578-1.502 2.677-.098.065-.686.489-.686 1.11v.849h-1.73v-.816c.033-.62-.62-1.077-.62-1.077zm2.415 3.133v.686c0 .098-.098.229-.229.229h-1.273c-.098 0-.229-.098-.229-.229v-.686h1.73z"/>
      <path d="m12.926 16.027.686.359c.065 0 .098.065.163.065s.163 0 .196-.065a.401.401 0 0 0 .163-.327l-.163-.783.587-.522c.098-.098.098-.196.098-.359-.065-.098-.163-.196-.261-.196l-.783-.098-.359-.686c-.065-.098-.163-.163-.326-.163s-.261.065-.327.163l-.359.686-.783.098c-.098 0-.261.098-.261.196-.065.098 0 .261.098.359l.587.522-.163.783c0 .098.065.261.163.326s.261.098.359.065l.686-.425zM20.466 10.282h-1.73a.491.491 0 0 0-.457.457l-.065 1.762c0 .13.033.261.13.359s.196.13.327.13c.13 0 .229-.065.359-.13a.42.42 0 0 0 .131-.326l.033-.718.196.196a2.6 2.6 0 0 1 0 3.721l-.946.979c-1.273 1.273-1.403 3.395-.229 4.798-.327.587-.196 1.338.261 1.795.587.587 1.567.587 2.187 0s.587-1.567 0-2.187a1.54 1.54 0 0 0-1.762-.294c-.816-1.045-.718-2.546.196-3.46l.914-.914a3.557 3.557 0 0 0 0-5.027l-.13-.13h.587c.13 0 .229-.065.326-.13.098-.098.131-.196.131-.326s-.065-.229-.131-.327c-.098-.163-.229-.229-.326-.229zm-.425 12.338c-.229.229-.62.229-.849 0s-.229-.62 0-.849a.61.61 0 0 1 .849 0 .582.582 0 0 1 0 .849z"/>
      <path d="M23.273 17.724a.418.418 0 0 0-.131-.326.5.5 0 0 0-.326-.131.421.421 0 0 0-.327.131l-.555.555-.555-.555a.5.5 0 0 0-.327-.131.417.417 0 0 0-.326.131.5.5 0 0 0-.131.326c0 .13.033.229.163.327l.555.522-.555.522a.77.77 0 0 0-.163.327c0 .13.033.229.131.327.065.065.196.13.326.13s.229-.033.327-.13l.62-.555.555.555c.065.065.196.13.327.13s.229-.033.326-.13c.163-.196.163-.49 0-.653l-.555-.522.555-.522c.032-.098.065-.163.065-.327zM14.623 9.988c0 .13.033.229.13.326.065.065.196.13.327.13s.229-.033.326-.13l.62-.555.555.555c.065.065.196.13.327.13s.229-.033.327-.13c.065-.065.13-.196.13-.326s-.033-.229-.163-.327l-.555-.522.555-.522a.436.436 0 0 0 0-.653.5.5 0 0 0-.326-.13.424.424 0 0 0-.327.13l-.587.588-.555-.555a.5.5 0 0 0-.327-.13.423.423 0 0 0-.327.13c-.065.065-.13.196-.13.327s.033.229.163.326l.555.522-.555.489a.4.4 0 0 0-.163.327z"/>
    </symbol>
    <symbol id="icon-cross-border-2" viewBox="0 0 32 32">
      <path d="M11.281 19.979a.566.566 0 0 1-.342-.115 7.829 7.829 0 0 1-3.114-6.288c0-4.367 3.553-7.92 7.92-7.92s7.92 3.553 7.92 7.92a7.829 7.829 0 0 1-3.115 6.289.567.567 0 0 1-.901-.542 3.965 3.965 0 0 0-3.905-4.615 3.964 3.964 0 0 0-3.905 4.616.566.566 0 0 1-.559.656zm4.464-13.192a6.796 6.796 0 0 0-6.788 6.788c0 1.704.618 3.299 1.728 4.527.281-2.543 2.443-4.527 5.06-4.527s4.778 1.984 5.06 4.527a6.71 6.71 0 0 0 1.728-4.527 6.796 6.796 0 0 0-6.788-6.788z"/>
      <path d="M15.745 21.495a7.837 7.837 0 0 1-4.808-1.633.568.568 0 0 1-.214-.358 5.097 5.097 0 0 1 5.022-5.928 5.097 5.097 0 0 1 5.021 5.929.568.568 0 0 1-.214.358 7.834 7.834 0 0 1-4.807 1.633zm-3.935-2.394c1.154.827 2.51 1.263 3.935 1.263s2.781-.436 3.935-1.263a3.965 3.965 0 0 0-3.935-4.394 3.964 3.964 0 0 0-3.936 4.394zm8.398.312z"/>
      <path d="M15.746 14.708c-1.559 0-2.829-1.269-2.829-2.829s1.269-2.829 2.829-2.829c1.559 0 2.829 1.269 2.829 2.829s-1.269 2.829-2.829 2.829zm0-4.526c-.936 0-1.697.761-1.697 1.697s.761 1.697 1.697 1.697 1.697-.761 1.697-1.697-.761-1.697-1.697-1.697zM4.998 5.657c-1.559 0-2.829-1.269-2.829-2.829S3.438-.001 4.998-.001c1.559 0 2.829 1.269 2.829 2.829S6.558 5.657 4.998 5.657zm0-4.525c-.936 0-1.697.761-1.697 1.697s.761 1.697 1.697 1.697 1.697-.761 1.697-1.697-.761-1.697-1.697-1.697zM26.495 5.657c-1.559 0-2.829-1.269-2.829-2.829s1.269-2.829 2.829-2.829c1.559 0 2.829 1.269 2.829 2.829s-1.269 2.829-2.829 2.829zm0-4.525c-.936 0-1.697.761-1.697 1.697s.761 1.697 1.697 1.697 1.697-.761 1.697-1.697-.762-1.697-1.697-1.697zM4.998 27.153c-1.559 0-2.829-1.269-2.829-2.829s1.269-2.829 2.829-2.829c1.559 0 2.829 1.269 2.829 2.829s-1.269 2.829-2.829 2.829zm0-4.525c-.936 0-1.697.761-1.697 1.697s.761 1.697 1.697 1.697 1.697-.761 1.697-1.697-.761-1.697-1.697-1.697zM26.495 27.153c-1.559 0-2.829-1.269-2.829-2.829s1.269-2.829 2.829-2.829c1.559 0 2.829 1.269 2.829 2.829s-1.269 2.829-2.829 2.829zm0-4.525c-.936 0-1.697.761-1.697 1.697s.761 1.697 1.697 1.697 1.697-.761 1.697-1.697-.762-1.697-1.697-1.697z"/>
      <path d="M20.947 8.943a.566.566 0 0 1-.4-.966l3.851-3.851a.566.566 0 1 1 .8.8l-3.851 3.851a.567.567 0 0 1-.4.166zM10.545 8.941a.56.56 0 0 1-.4-.166l-3.85-3.85a.566.566 0 1 1 .8-.8l3.849 3.85a.566.566 0 0 1-.4.966zM24.797 23.194a.564.564 0 0 1-.411-.177l-3.751-3.96a.566.566 0 1 1 .822-.778l3.751 3.96a.566.566 0 0 1-.411.955zM6.695 23.194a.566.566 0 0 1-.4-.966l3.849-3.849a.566.566 0 1 1 .8.8l-3.85 3.849a.565.565 0 0 1-.4.166z"/>
    </symbol>
    <symbol id="icon-cross-border-3" viewBox="0 0 32 32">
      <path d="M15.845 1.714A13.224 13.224 0 0 0 2.634 14.925v2.005a3.905 3.905 0 0 0-2.423 3.615v5.05a3.909 3.909 0 0 0 3.909 3.909h1.352v-.031a2.625 2.625 0 0 0 4.51-1.817v-9.17a2.626 2.626 0 0 0-2.666-2.63 2.632 2.632 0 0 0-1.861.812v-.031H4.197v-1.712a11.648 11.648 0 1 1 23.294 0v1.712h-1.266v.031a2.626 2.626 0 0 0-4.518 1.817v9.17a2.626 2.626 0 0 0 4.526 1.817v.031h1.337a3.909 3.909 0 0 0 3.909-3.909v-5.05a3.904 3.904 0 0 0-2.431-3.616v-2.005A13.225 13.225 0 0 0 15.845 1.712h.001zM6.293 18.486a1.065 1.065 0 0 1 1.601-.924c.33.191.534.543.534.924v9.17a1.066 1.066 0 1 1-2.135 0v-9.17zm-1.564 9.451h-.61a2.344 2.344 0 0 1-2.345-2.345v-5.046a2.344 2.344 0 0 1 2.345-2.345h.625a2.71 2.71 0 0 0 0 .285v9.17a2.71 2.71 0 0 0 0 .285l-.016-.004zm20.649-.285a1.066 1.066 0 1 1-2.135 0v-9.166a1.065 1.065 0 0 1 1.601-.924c.33.191.534.543.534.924v9.165zm4.538-7.105v5.05a2.344 2.344 0 0 1-2.345 2.345h-.625a2.71 2.71 0 0 0 0-.285v-9.17a2.71 2.71 0 0 0 0-.285h.625a2.344 2.344 0 0 1 2.345 2.345z"/>
    </symbol>
    <symbol id="icon-cross-border-4" viewBox="0 0 32 32">
      <path d="M24.738 20.527h3.158v1.053h-3.158v-1.053zM22.633 23.685h5.264v1.053h-5.264v-1.053zM22.633 26.843h5.264v1.053h-5.264v-1.053zM10.5 5.527a.526.526 0 0 0-.421-.353l-1.54-.235-.693-1.478a.525.525 0 0 0-.952 0L6.2 4.939l-1.54.235a.528.528 0 0 0-.298.888L5.493 7.22l-.268 1.642a.524.524 0 0 0 .774.545l1.372-.758 1.372.758a.526.526 0 0 0 .774-.545L9.249 7.22l1.131-1.158a.528.528 0 0 0 .122-.536zM8.308 6.675a.527.527 0 0 0-.143.452l.136.835-.678-.375a.527.527 0 0 0-.508 0l-.678.375.136-.835a.524.524 0 0 0-.143-.452l-.601-.615.806-.123a.528.528 0 0 0 .397-.297l.337-.716.337.717c.074.159.223.27.397.297l.806.123-.6.614zM21.081 5.527a.528.528 0 0 0 .122.535l1.131 1.158-.268 1.642a.524.524 0 0 0 .774.545l1.372-.756 1.372.758a.526.526 0 0 0 .774-.545l-.268-1.642 1.131-1.158a.525.525 0 0 0-.298-.888l-1.54-.235-.694-1.479a.525.525 0 0 0-.952 0l-.694 1.478-1.54.235a.528.528 0 0 0-.42.352zm2.397.41a.528.528 0 0 0 .397-.297l.337-.716.337.717c.075.159.223.27.397.297l.806.123-.601.615a.528.528 0 0 0-.143.452l.136.835-.678-.375a.527.527 0 0 0-.508 0l-.678.375.136-.835a.525.525 0 0 0-.143-.452l-.601-.615.806-.124zM19.448 2.772a.526.526 0 0 0-.421-.353l-1.904-.291-.856-1.825a.525.525 0 0 0-.952 0l-.857 1.825-1.904.294a.528.528 0 0 0-.298.888l1.394 1.428-.33 2.023a.528.528 0 0 0 .773.546l1.697-.941 1.698.938a.526.526 0 0 0 .773-.546l-.33-2.021 1.394-1.428a.525.525 0 0 0 .122-.537zm-2.456 1.417a.528.528 0 0 0-.143.452l.198 1.215-1.004-.554a.527.527 0 0 0-.508 0l-1.004.554.198-1.215a.524.524 0 0 0-.143-.452l-.864-.885 1.171-.179a.53.53 0 0 0 .397-.297l.498-1.064.5 1.064c.075.159.223.27.397.297l1.169.178-.864.885z"/>
      <path d="M2.631 31.581h13.685a.52.52 0 0 0 .195-.037l.009-.004 4.895-1.957a4.745 4.745 0 0 0 3.864 1.998h4.106a2.155 2.155 0 0 0 2.196-1.993 2.1 2.1 0 0 0-.872-1.82 1.567 1.567 0 0 1-.707-1.25v-4.922a4.76 4.76 0 0 0-4.752-4.752h-2.616v-1.053h.526a.525.525 0 0 0 .342-.926l-7.369-6.316a.527.527 0 0 0-.684 0l-2.29 1.962v-.51a.529.529 0 0 0-.526-.526h-2.105a.526.526 0 0 0-.526.526v3.158c0 .018.008.033.01.05l-1.931 1.656a.527.527 0 0 0 .342.926h.526v7.895a.529.529 0 0 0 .526.526h4.211a.523.523 0 0 0 .526-.526v-2.632h3.158v2.632a.524.524 0 0 0 .526.526h2.632v2.616c.001.404.054.806.158 1.196l-4.173-1.669a.522.522 0 0 0-.175-.033c-.007 0-.013-.004-.02-.004H2.632a2.632 2.632 0 0 0 0 5.264zm8.422-21.054h1.053v.886l-1.053.904v-1.79zm4.737-.886 5.948 5.097H9.843l5.948-5.097zm4.737 13.518h-2.105v-2.632a.523.523 0 0 0-.526-.526h-4.211a.526.526 0 0 0-.526.526v2.632h-3.158V15.79h11.58v1.053h-.437a2.151 2.151 0 0 0-2.193 1.993 2.1 2.1 0 0 0 .872 1.82c.423.278.685.744.704 1.25v1.253zm-.088-3.356a1.053 1.053 0 0 1-.438-.912 1.117 1.117 0 0 1 1.142-.996h4.105a3.703 3.703 0 0 1 3.7 3.7v4.922a2.603 2.603 0 0 0 1.141 2.103c.292.209.457.553.438.912a1.117 1.117 0 0 1-1.142.996H25.28a3.703 3.703 0 0 1-3.7-3.7v-4.922a2.603 2.603 0 0 0-1.141-2.103zm-3.596 7.818 3.32 1.328-3.32 1.328v-2.656zm-11.58-.251H15.79v1.053H5.263V27.37zm0 2.105H15.79v1.053H5.263v-1.053zM2.631 27.37H4.21v3.158H2.631a1.58 1.58 0 0 1 0-3.159z"/>
    </symbol>
    <symbol id="icon-cross-border-5" viewBox="0 0 32 32">
      <path d="M18.745 15.175a.877.877 0 0 0-.033-1.221.877.877 0 0 0-1.221.033l-2.013 2.145-.891-.957c-.33-.363-.858-.363-1.221-.033s-.363.858-.033 1.221l1.518 1.65c.165.165.396.264.627.264s.462-.099.627-.264l2.64-2.838z"/>
      <path d="M31.45 14.977a.877.877 0 0 0-1.221 0l-1.32 1.32V16c0-7.095-5.775-12.903-12.903-12.903-4.092 0-7.986 1.98-10.428 5.313-.297.396-.198.924.198 1.221s.924.198 1.221-.198a11.254 11.254 0 0 1 9.043-4.587c6.171 0 11.154 5.016 11.154 11.154v.264l-1.32-1.32c-.33-.33-.891-.33-1.221 0s-.33.891 0 1.221l2.772 2.772c.165.165.396.264.627.264s.429-.099.627-.264l2.772-2.772a.784.784 0 0 0 0-1.188zM25.048 22.567a11.146 11.146 0 0 1-9.009 4.587C9.868 27.154 4.885 22.138 4.885 16v-.264l1.32 1.32c.165.165.396.264.627.264s.429-.099.627-.264a.877.877 0 0 0 0-1.221L4.621 13.03a.877.877 0 0 0-1.221 0L.628 15.802c-.33.33-.33.891 0 1.221s.891.33 1.221 0l1.32-1.32V16c0 7.095 5.775 12.903 12.903 12.903 4.092 0 7.986-1.98 10.428-5.313.297-.396.198-.924-.198-1.221-.429-.264-.957-.198-1.254.198z"/>
      <path d="M22.672 16a6.633 6.633 0 1 0-13.267 0 6.633 6.633 0 0 0 13.267 0zm-11.55 0c0-2.706 2.211-4.917 4.917-4.917s4.917 2.211 4.917 4.917-2.211 4.917-4.917 4.917-4.917-2.211-4.917-4.917z"/>
    </symbol>

  <!-- subscribe -->
    <symbol id="icon-subscribe-arrow" viewBox="0 0 32 32">
      <path d="M0 17.067h28.082l-10.628 8.466 1.162 1.667 13.383-11.236L18.616 4.8l-1.162 1.595 10.628 8.466H0v2.206z"/>
    </symbol>
    

  <!-- footer -->
    <symbol id="icon-footer-logo" viewBox="0 0 32 32">
      <path d="M22.77 8.438c0-3.545-2.9-6.445-6.445-6.445S9.88 4.893 9.88 8.438c0 3.545 2.9 6.445 6.445 6.445s6.445-2.9 6.445-6.445zm-11.403 0 3.099-1.81c.496-.297 1.116.074 1.116.644v1.165a.73.73 0 0 0 .744.744h4.883a4.94 4.94 0 0 1-4.883 4.214 4.972 4.972 0 0 1-4.958-4.958zM28.868 21.502c-.198-.347-.669-.471-1.016-.273s-.471.669-.273 1.016l2.677 4.611c.124.198.198.421.198.669 0 .694-.545 1.239-1.239 1.239h-3.644l.793-9.494c.05-.62-.149-1.239-.57-1.686s-1.041-.719-1.661-.719H8.318c-.62 0-1.239.273-1.661.744s-.62 1.091-.57 1.735l.992 9.444H3.435a1.227 1.227 0 0 1-1.239-1.239c0-.223.074-.446.174-.645.025-.025 2.702-4.635 2.702-4.635.198-.347.074-.818-.273-1.016s-.818-.074-1.016.273l-2.628 4.511a2.685 2.685 0 0 0-.446 1.487 2.72 2.72 0 0 0 2.727 2.727h25.78a2.72 2.72 0 0 0 2.727-2.727c0-.52-.149-1.041-.446-1.487L28.869 21.5zm-12.791 3.296c-.818 0-1.487-.669-1.487-1.487s.669-1.487 1.487-1.487c.818 0 1.487.669 1.487 1.487s-.669 1.487-1.487 1.487z"/>
    </symbol>
    <symbol id="icon-footer-arrow" viewBox="0 0 32 32">
      <path d="M0 16.279h28.082L17.455 24l1.162 1.52L32 15.272 18.617 5.09l-1.162 1.455 10.627 7.721H0v2.012z"/>
    </symbol>

    <symbol id="icon-facebook" viewBox="0 0 32 32">
      <path d="M21.33 5.314h2.922V.225C23.749.156 22.016 0 19.996 0c-4.212 0-7.097 2.65-7.097 7.519v4.482H8.25v5.689h4.649v14.314h5.699V17.692h4.46l.707-5.689h-5.17V8.084c.003-1.644.444-2.77 2.735-2.77z"/>
    </symbol>
    <symbol id="icon-instagram" viewBox="0 0 32 32">
      <path d="M31.971 9.409c-.075-1.7-.349-2.87-.743-3.883a7.845 7.845 0 0 0-1.849-2.836l-.001-.001A7.884 7.884 0 0 0 26.599.863l-.054-.018C25.526.452 24.362.174 22.662.101c-1.712-.08-2.256-.1-6.601-.1-4.347 0-4.89.019-6.597.093-1.7.076-2.87.351-3.882.744a7.853 7.853 0 0 0-2.838 1.849l-.001.001A7.89 7.89 0 0 0 .917 5.466l-.018.054C.506 6.539.23 7.702.155 9.4c-.08 1.715-.1 2.259-.1 6.603 0 4.346.019 4.89.093 6.597.077 1.7.351 2.868.744 3.882a7.925 7.925 0 0 0 1.85 2.838l.001.001c.8.813 1.77 1.444 2.832 1.844 1.019.393 2.182.668 3.882.744 1.707.075 2.251.093 6.597.093 4.344 0 4.889-.019 6.595-.093 1.7-.076 2.87-.351 3.882-.744a8.237 8.237 0 0 0 4.664-4.628l.019-.055c.393-1.019.669-2.182.744-3.882.075-1.707.093-2.251.093-6.597 0-4.344-.005-4.889-.08-6.595zm-2.88 13.067c-.071 1.563-.333 2.407-.551 2.97a5.34 5.34 0 0 1-3.004 3.025l-.036.012c-.561.22-1.412.481-2.968.551-1.688.075-2.195.093-6.465.093s-4.783-.019-6.465-.093c-1.563-.069-2.407-.331-2.97-.551a4.945 4.945 0 0 1-1.836-1.192l-.001-.001a4.971 4.971 0 0 1-1.183-1.803l-.011-.034c-.219-.563-.48-1.413-.549-2.97-.076-1.688-.093-2.195-.093-6.465 0-4.271.017-4.783.093-6.465.068-1.563.331-2.407.549-2.97a4.899 4.899 0 0 1 1.2-1.839 4.968 4.968 0 0 1 1.805-1.182l.034-.011c.563-.219 1.413-.48 2.97-.551 1.688-.075 2.195-.093 6.465-.093 4.276 0 4.782.019 6.465.093 1.563.069 2.407.332 2.97.551a4.952 4.952 0 0 1 1.838 1.193c.531.52.937 1.144 1.193 1.839.22.563.481 1.413.551 2.97.075 1.688.093 2.194.093 6.465 0 4.27-.019 4.77-.093 6.458z"/>
      <path d="M16.06 7.784a8.224 8.224 0 0 0-8.221 8.221 8.224 8.224 0 0 0 8.221 8.222 8.224 8.224 0 0 0 8.221-8.222 8.224 8.224 0 0 0-8.221-8.221zm0 13.554a5.335 5.335 0 0 1 .001-10.668h.001a5.335 5.335 0 0 1-.001 10.668h-.001zm10.467-13.88.001.072a1.92 1.92 0 1 1-3.84 0l.001-.075v.004a1.92 1.92 0 0 1 3.838-.004v.004z"/>
    </symbol>
    <symbol id="icon-twitter" viewBox="0 0 32 32">
      <path d="M32.003 6.079a13.701 13.701 0 0 1-3.78 1.035 6.561 6.561 0 0 0 2.874-3.58l.013-.046a12.867 12.867 0 0 1-4.076 1.574l-.084.014a6.559 6.559 0 0 0-11.349 4.481v.006c0 .52.044 1.019.152 1.495-5.455-.265-10.281-2.88-13.524-6.862a6.57 6.57 0 0 0 2.017 8.769 6.454 6.454 0 0 1-2.997-.825l.033.017v.072a6.594 6.594 0 0 0 5.213 6.44l.043.008a6.584 6.584 0 0 1-1.72.216l-.104.001c-.403 0-.797-.041-1.177-.119l.038.006c.851 2.598 3.263 4.507 6.131 4.57a13.099 13.099 0 0 1-8.122 2.799h-.013.001c-.539 0-1.055-.024-1.571-.091 2.827 1.846 6.288 2.944 10.005 2.944h.063-.003c12.073 0 18.674-10.001 18.674-18.67 0-.289-.011-.569-.024-.848a13.207 13.207 0 0 0 3.259-3.359l.03-.047z"/>
    </symbol>
    <symbol id="icon-linkedin" viewBox="0 0 32 32">
      <path d="M31.995 32.003h.008V20.264c0-5.742-1.236-10.165-7.948-10.165-3.227 0-5.394 1.771-6.278 3.45h-.093v-2.914h-6.363v21.368h6.627v-10.58c0-2.786.528-5.479 3.978-5.479 3.4 0 3.45 3.179 3.45 5.658v10.401h6.621zM.528 10.637h6.635v21.366H.528V10.637zM3.843 0A3.845 3.845 0 0 0 0 3.843c0 2.122 1.722 3.879 3.843 3.879s3.843-1.758 3.843-3.879A3.845 3.845 0 0 0 3.843 0z"/>
    </symbol>
  </defs>
</svg>
